<svg width="54" height="61" viewBox="0 0 54 61" fill="none" xmlns="http://www.w3.org/2000/svg">
<path fill-rule="evenodd" clip-rule="evenodd" d="M53.6799 61.0001H50.1748L41.6158 52.4895C40.8669 51.7451 39.6532 51.7451 38.9043 52.4895L30.3453 61.0001H26.84V36.2189C26.84 33.0605 29.415 30.5001 32.5914 30.5001H47.9285C51.105 30.5001 53.6799 33.0605 53.6799 36.2189V61.0001ZM49.8457 36.2189C49.8457 35.1661 48.9874 34.3126 47.9285 34.3126H32.5914C31.5326 34.3126 30.6742 35.1661 30.6742 36.2189V55.2814L36.1932 49.7936C38.4392 47.5605 42.0809 47.5605 44.327 49.7936L49.8457 55.2812V36.2189Z" fill="#A9A9A9"/>
<path fill-rule="evenodd" clip-rule="evenodd" d="M26.84 30.5H23.3349L14.7758 21.9893C14.027 21.2449 12.8132 21.2449 12.0644 21.9893L3.50536 30.5H0V5.71875C0 2.56038 2.57501 0 5.75142 0H21.0886C24.2651 0 26.84 2.56036 26.84 5.71875V30.5ZM23.0057 5.71875C23.0057 4.66596 22.1474 3.8125 21.0886 3.8125H5.75142C4.69262 3.8125 3.83428 4.66596 3.83428 5.71875V24.7812L9.35321 19.2935C11.5993 17.0604 15.2409 17.0604 17.487 19.2935L23.0057 24.781V5.71875Z" fill="#A9A9A9"/>
</svg>
