<svg width="54" height="48" viewBox="0 0 54 48" fill="none" xmlns="http://www.w3.org/2000/svg">
<path fill-rule="evenodd" clip-rule="evenodd" d="M15.9999 21.3334C21.8909 21.3334 26.6666 16.5577 26.6666 10.6667C26.6666 4.77563 21.8909 0 15.9999 0C10.1089 0 5.33325 4.77563 5.33325 10.6667C5.33325 16.5577 10.1089 21.3334 15.9999 21.3334ZM15.9999 16C18.9455 16 21.3333 13.6122 21.3333 10.6667C21.3333 7.72116 18.9455 5.33334 15.9999 5.33334C13.0544 5.33334 10.6666 7.72116 10.6666 10.6667C10.6666 13.6122 13.0544 16 15.9999 16Z" fill="#A9A9A9"/>
<path d="M24 29.3333C25.4728 29.3333 26.6667 30.5272 26.6667 32V48H32V32C32 27.5816 28.4184 24 24 24H8.00001C3.58174 24 0 27.5816 0 32V48H5.33334V32C5.33334 30.5272 6.52726 29.3333 8.00001 29.3333H24Z" fill="#A9A9A9"/>
<path d="M42.6668 10.6665H48.0001V15.9998H53.3335V21.3332H48.0001V26.6665H42.6668V21.3332H37.3334V15.9998H42.6668V10.6665Z" fill="#A9A9A9"/>
</svg>
