<svg width="48" height="48" viewBox="0 0 48 48" fill="none" xmlns="http://www.w3.org/2000/svg">
<path d="M16.8 11.9998H21.6V23.9998H33.6V28.7998H16.8V11.9998Z" fill="#A9A9A9"/>
<path fill-rule="evenodd" clip-rule="evenodd" d="M48 24C48 37.2547 37.2547 48 24 48C10.7452 48 0 37.2547 0 24C0 10.7452 10.7452 0 24 0C37.2547 0 48 10.7452 48 24ZM43.2 24C43.2 34.6039 34.6039 43.2 24 43.2C13.3961 43.2 4.8 34.6039 4.8 24C4.8 13.3961 13.3961 4.8 24 4.8C34.6039 4.8 43.2 13.3961 43.2 24Z" fill="#A9A9A9"/>
</svg>
