<svg width="36" height="37" viewBox="0 0 36 37" fill="none" xmlns="http://www.w3.org/2000/svg">
<g clip-path="url(#clip0)">
<path d="M23.1147 7.22551C23.1106 7.29653 23.1039 7.36894 23.1039 7.43995C23.1039 8.59846 23.0998 9.75697 23.1066 10.9141C23.1079 11.0756 23.0606 11.116 22.909 11.1146C22.2971 11.1076 21.6839 11.109 21.0721 11.1202C20.8636 11.1244 20.6538 11.1578 20.448 11.1968C20.0623 11.272 19.7807 11.5936 19.7645 12.042C19.7347 12.8566 19.7387 13.6739 19.7238 14.4899C19.7211 14.6389 19.8172 14.6138 19.9012 14.6138C20.8988 14.6152 21.8964 14.6138 22.8941 14.6138C22.9617 14.6138 23.0294 14.6138 23.1201 14.6138C22.9861 15.9241 22.8548 17.2038 22.7221 18.4959C21.7205 18.4959 20.7364 18.4959 19.7279 18.4959C19.7279 18.5878 19.7279 18.663 19.7279 18.7382C19.7265 22.3516 19.7252 25.9636 19.7238 29.577C19.7238 29.6425 19.7198 29.7093 19.7184 29.7747C18.3526 29.7747 16.9868 29.7747 15.621 29.7747C15.6223 29.4392 15.625 29.1022 15.625 28.7666C15.625 25.4401 15.625 22.1149 15.625 18.7884C15.625 18.6992 15.625 18.6115 15.625 18.5015C14.7073 18.5015 13.8057 18.5015 12.8947 18.5015C12.8907 18.4221 12.8853 18.3651 12.8839 18.3066C12.8839 17.1425 12.8866 15.977 12.8798 14.8129C12.8785 14.6514 12.9259 14.611 13.0775 14.6124C13.8599 14.6194 14.6423 14.6096 15.4233 14.6194C15.5898 14.6208 15.6264 14.5637 15.6264 14.4036C15.6304 13.3592 15.6264 12.3149 15.6629 11.2706C15.69 10.5117 15.8443 9.77229 16.1854 9.08582C16.5617 8.33251 17.1452 7.82009 17.9221 7.56527C18.3526 7.42463 18.8074 7.36476 19.2514 7.26729C19.3137 7.25336 19.3746 7.23944 19.4369 7.22412C20.6633 7.22551 21.8883 7.22551 23.1147 7.22551Z" fill="white"/>
<path d="M36 18.5113C35.9688 20.7128 35.9472 22.9156 35.9025 25.1171C35.8727 26.5666 35.7834 28.0133 35.4098 29.4225C34.6436 32.316 32.9895 34.4659 30.3485 35.7748C29.2805 36.304 28.1421 36.6061 26.9671 36.7509C25.068 36.9862 23.158 36.9876 21.2494 36.9946C18.4013 37.0043 15.5519 37.0016 12.7039 36.9626C11.4693 36.9459 10.2294 36.886 9.00302 36.7384C6.81012 36.4752 4.83246 35.6718 3.19997 34.076C1.67307 32.5847 0.809448 30.7411 0.397942 28.6455C0.171884 27.4954 0.113678 26.3299 0.079837 25.1616C-0.0352223 21.0456 -0.0122104 16.9281 0.0527642 12.812C0.0717151 11.6271 0.131275 10.4379 0.266639 9.26131C0.522477 7.03898 1.28187 5.02689 2.79388 3.35875C4.2531 1.75048 6.06698 0.841211 8.13534 0.409553C9.25344 0.177015 10.3864 0.11714 11.5221 0.0837216C15.5479 -0.0360285 19.5736 -0.0109645 23.5993 0.0572652C24.7269 0.0767594 25.8599 0.136634 26.9793 0.274486C29.8653 0.630952 32.2775 1.88972 33.9925 4.37802C34.8602 5.63818 35.3475 7.05847 35.621 8.56509C35.8849 10.0202 35.912 11.4962 35.935 12.9694C35.9634 14.8158 35.9418 16.6635 35.9418 18.5113C35.9607 18.5113 35.981 18.5113 36 18.5113ZM17.979 33.6319C17.979 33.6541 17.979 33.6778 17.979 33.7001C20.1665 33.6653 22.3553 33.636 24.5428 33.5929C25.5539 33.572 26.5624 33.5024 27.5519 33.2629C28.9204 32.9301 30.0995 32.2687 31.0145 31.1491C31.8145 30.1702 32.2314 29.0215 32.4467 27.7808C32.6348 26.6919 32.6673 25.5905 32.6849 24.4905C32.7526 20.2087 32.7824 15.9269 32.6551 11.6452C32.6254 10.6551 32.5577 9.66791 32.3411 8.69598C32.0013 7.17265 31.2866 5.89021 30.0697 4.92664C29.1668 4.21092 28.1218 3.84889 27.0172 3.64002C25.9479 3.43951 24.8636 3.41027 23.7834 3.39217C19.6331 3.32394 15.4829 3.2933 11.3326 3.4228C10.3634 3.45343 9.39828 3.52166 8.44803 3.74863C6.96038 4.1037 5.71232 4.84309 4.77561 6.10465C4.08796 7.03201 3.74007 8.10141 3.53838 9.23207C3.34617 10.314 3.31774 11.4099 3.30014 12.5029C3.23111 16.7972 3.20268 21.0915 3.32992 25.3844C3.3597 26.3744 3.42738 27.3617 3.64667 28.3322C3.99591 29.875 4.72688 31.1672 5.97087 32.128C6.86698 32.8201 7.89574 33.1737 8.98407 33.3742C10.1184 33.5831 11.2677 33.6096 12.4142 33.6235C14.2687 33.65 16.1245 33.6319 17.979 33.6319Z" fill="white"/>
</g>
<defs>
<clipPath id="clip0">
<rect width="36" height="37" fill="white"/>
</clipPath>
</defs>
</svg>
