<svg width="59" height="48" viewBox="0 0 59 48" fill="none" xmlns="http://www.w3.org/2000/svg">
<path d="M42.6667 32H48V37.3333H42.6667V32Z" fill="#A9A9A9"/>
<path d="M48 21.3335H42.6667V26.6668H48V21.3335Z" fill="#A9A9A9"/>
<path fill-rule="evenodd" clip-rule="evenodd" d="M32 10.6667H58.6667V48H0V0H32V10.6667ZM18.6667 5.33333H26.6667V10.6667H18.6667V5.33333ZM26.6667 42.6667V37.3333H18.6667V42.6667H26.6667ZM26.6667 32V26.6667H18.6667V32H26.6667ZM26.6667 21.3333V16H18.6667V21.3333H26.6667ZM53.3333 42.6667V16H32V21.3333H37.3333V26.6667H32V32H37.3333V37.3333H32V42.6667H53.3333ZM5.33333 42.6667V37.3333H13.3333V42.6667H5.33333ZM5.33333 32H13.3333V26.6667H5.33333V32ZM13.3333 21.3333V16H5.33333V21.3333H13.3333ZM5.33333 10.6667H13.3333V5.33333H5.33333V10.6667Z" fill="#A9A9A9"/>
</svg>
