<svg width="47" height="48" viewBox="0 0 47 48" fill="none" xmlns="http://www.w3.org/2000/svg">
<path fill-rule="evenodd" clip-rule="evenodd" d="M0 40.8C0 44.7766 3.09958 48 6.92308 48H39.2308C43.0544 48 46.1538 44.7766 46.1538 40.8V7.2C46.1538 3.22356 43.0544 0 39.2308 0H6.92308C3.09958 0 0 3.22356 0 7.2V40.8ZM41.5385 40.8C41.5385 42.1255 40.5053 43.2 39.2308 43.2H6.92308C5.64858 43.2 4.61538 42.1255 4.61538 40.8V7.2C4.61538 5.87453 5.64858 4.8 6.92308 4.8H18.4615V24.0266L23.9885 24.0269L27.6925 18.8741L31.3964 24.0269H36.9233L36.9231 4.8H39.2308C40.5053 4.8 41.5385 5.87453 41.5385 7.2V40.8ZM32.3077 4.8H23.0769V17.606L27.6925 11.1851L32.3077 17.6057V4.8Z" fill="#A9A9A9"/>
</svg>
