<svg width="24" height="16" viewBox="0 0 24 16" fill="none" xmlns="http://www.w3.org/2000/svg">
<path d="M24 2.03148C24 5.94392 24 9.85483 24 13.7673C23.3448 15.3182 22.7701 15.6923 21.0371 15.6923C14.8877 15.6923 8.73681 15.6923 2.58745 15.6893C2.34117 15.6893 2.08881 15.6786 1.85013 15.6254C0.842212 15.4019 0.311649 14.6903 0 13.7673C0 9.81986 0 5.87245 0 1.92504C0.630899 0.393828 1.22683 0 2.90822 0C9.05302 0 15.1978 0 21.3411 0.00304114C21.6056 0.00304114 21.8762 0.010644 22.1316 0.0684258C23.1897 0.302594 23.7294 1.04311 24 2.03148ZM3.07544 1.59964C3.24267 1.77451 3.34604 1.88703 3.45398 1.99499C6.13112 4.67272 8.80826 7.35045 11.4854 10.0282C11.9612 10.5041 12.0388 10.5041 12.5146 10.0267C15.1917 7.34893 17.8689 4.67272 20.546 1.99347C20.6524 1.88703 20.7558 1.77451 20.923 1.59812C14.9409 1.59964 9.0591 1.59964 3.07544 1.59964ZM3.60905 14.0683C9.2096 14.0683 14.8117 14.0683 20.3545 14.0683C18.7537 12.4672 17.1528 10.8645 15.5399 9.25268C15.5536 9.24508 15.5171 9.25572 15.4927 9.28005C14.8375 9.93086 14.1869 10.5862 13.5301 11.2355C12.5237 12.23 11.4702 12.2284 10.4592 11.2264C9.77969 10.5528 9.10623 9.87308 8.45405 9.21923C6.82283 10.8508 5.22202 12.4535 3.60905 14.0683ZM1.63122 2.51503C1.63122 6.20698 1.63122 9.8898 1.63122 13.524C3.47374 11.678 5.31931 9.82746 7.11928 8.02254C5.3406 6.23587 3.49047 4.37925 1.63122 2.51503ZM22.3688 13.5301C22.3688 9.88068 22.3688 6.18873 22.3688 2.51351C20.5095 4.37925 18.6609 6.23739 16.8777 8.02558C18.6792 9.8305 20.5247 11.681 22.3688 13.5301Z" fill="white"/>
</svg>
