<svg width="25" height="24" viewBox="0 0 25 24" fill="none" xmlns="http://www.w3.org/2000/svg">
<path d="M4.17986 24C4.17986 23.1419 4.17986 22.3268 4.17986 21.5133C4.17986 20.9043 4.1705 20.2953 4.18453 19.6863C4.18921 19.4817 4.11594 19.3603 3.96315 19.2326C2.1796 17.7363 0.896507 15.9016 0.344605 13.6471C-0.601735 9.77166 0.416321 6.39143 3.21013 3.55099C5.15582 1.57329 7.57078 0.45219 10.335 0.112321C13.9894 -0.335198 17.2868 0.546 20.1039 2.9097C22.6623 5.05656 24.0312 7.81396 24.0031 11.1527C23.9751 14.4821 22.5563 17.2042 19.9855 19.3187C17.4037 21.4425 14.3885 22.316 11.0506 22.0854C10.3396 22.0361 9.63807 21.8501 8.93027 21.7424C8.79463 21.7224 8.62781 21.7347 8.50777 21.7947C7.14204 22.4852 5.78256 23.188 4.42151 23.8862C4.35603 23.92 4.28899 23.9492 4.17986 24ZM5.22909 22.3053C5.33511 22.2576 5.40994 22.2268 5.48166 22.1899C6.4358 21.7009 7.39305 21.2134 8.34251 20.7151C8.50153 20.6321 8.64184 20.6136 8.8149 20.6613C10.1027 21.0165 11.4138 21.1626 12.7515 21.0734C15.2881 20.9058 17.5549 20.0554 19.4741 18.4022C21.7784 16.4152 23.0069 13.9101 22.9554 10.8635C22.9118 8.27993 21.9031 6.07002 20.0556 4.25995C17.6952 1.94853 14.8032 0.922777 11.498 1.04581C8.81958 1.14577 6.42176 2.03004 4.43866 3.81858C1.52324 6.45141 0.425676 9.69631 1.39228 13.5164C1.94574 15.7017 3.24599 17.4318 5.04201 18.8036C5.18388 18.9112 5.23377 19.0204 5.23221 19.1942C5.22442 20.1415 5.22909 21.0873 5.22909 22.0346C5.22909 22.1146 5.22909 22.193 5.22909 22.3053Z" fill="white"/>
<path d="M19.278 8.21535C17.2605 10.373 15.2447 12.5291 13.1992 14.7159C12.1905 13.6517 11.1912 12.5983 10.1794 11.5341C8.34281 12.5491 6.51561 13.5594 4.68841 14.5683C4.67749 14.5544 4.66658 14.5391 4.65723 14.5252C6.70425 12.386 8.75128 10.2453 10.8326 8.07079C11.2785 8.52139 11.7057 8.9566 12.1391 9.38721C12.6551 9.90239 13.1821 10.4068 13.6919 10.9281C13.8447 11.085 13.9538 11.1065 14.1534 10.9943C15.7623 10.0915 17.379 9.20112 18.9942 8.30916C19.0737 8.26456 19.1548 8.22304 19.2359 8.17998C19.2499 8.19228 19.2639 8.20459 19.278 8.21535Z" fill="white"/>
</svg>
