<svg width="59" height="48" viewBox="0 0 59 48" fill="none" xmlns="http://www.w3.org/2000/svg">
<path fill-rule="evenodd" clip-rule="evenodd" d="M26.6667 10.6667H2.28882e-05V48H58.6667V0H26.6667V10.6667ZM40 5.33333H32V10.6667H40V5.33333ZM32 42.6667V37.3333H40V42.6667H32ZM32 32V26.6667H40V32H32ZM32 21.3333V16H40V21.3333H32ZM5.33336 42.6667V16H26.6667V21.3333H21.3334V26.6667H26.6667V32H21.3334V37.3333H26.6667V42.6667H5.33336ZM53.3334 42.6667V37.3333H45.3334V42.6667H53.3334ZM53.3334 32H45.3334V26.6667H53.3334V32ZM45.3334 21.3333V16H53.3334V21.3333H45.3334ZM53.3334 10.6667H45.3334V5.33333H53.3334V10.6667Z" fill="#A9A9A9"/>
</svg>
