<svg width="24" height="24" viewBox="0 0 24 24" fill="none" xmlns="http://www.w3.org/2000/svg">
<path d="M4.9687 0C5.72827 0.21822 6.3032 0.699423 6.84176 1.25756C7.7524 2.20178 8.66725 3.14321 9.62546 4.03707C10.6564 4.99948 10.9935 6.68369 9.64085 7.85172C8.98199 8.42105 8.39587 9.07431 7.7622 9.70379C9.56531 12.2721 11.7279 14.4291 14.2906 16.2378C14.9663 15.5594 15.6237 14.8949 16.2854 14.2347C17.2813 13.2415 18.6578 13.1645 19.6762 14.1269C20.9239 15.3062 22.1339 16.5274 23.3146 17.7751C23.6307 18.1095 23.7762 18.6074 24 19.0299C24 19.3418 24 19.6552 24 19.9671C23.6321 20.4735 23.288 21.0009 22.8879 21.4821C22.5508 21.8877 22.1367 22.2277 21.7744 22.6137C21.1785 23.2502 20.4385 23.6153 19.6076 23.8265C19.3838 23.8825 19.1614 23.9412 18.9376 23.9986C18.3752 23.9986 17.8129 23.9986 17.2506 23.9986C17.1806 23.9706 17.1121 23.9384 17.0393 23.9161C15.9063 23.5831 14.7284 23.3579 13.6471 22.9019C10.4578 21.5562 7.82095 19.416 5.48627 16.8967C3.29148 14.527 1.49397 11.8986 0.518972 8.78056C0.293758 8.05875 0.170659 7.30337 0 6.56199C0 6.09337 0 5.62476 0 5.15615C0.208428 4.51128 0.292359 3.78528 0.650463 3.23833C1.51915 1.91362 2.59486 0.755377 4.03147 0C4.34342 0 4.65676 0 4.9687 0ZM1.48837 5.9395C1.50935 7.30757 1.89544 8.59031 2.46896 9.8129C4.56863 14.2808 7.82654 17.7206 11.9685 20.3448C13.6401 21.4051 15.4265 22.2179 17.424 22.4557C18.7921 22.6179 20.0343 22.3997 20.9925 21.2792C21.3464 20.8652 21.7618 20.5029 22.1465 20.114C22.6012 19.6552 22.6445 19.2243 22.1983 18.7669C21.0428 17.5807 19.8706 16.4099 18.6858 15.2544C18.241 14.8208 17.7877 14.8641 17.3345 15.3146C16.691 15.9524 16.056 16.5987 15.4111 17.2352C14.79 17.8493 14.085 17.9248 13.38 17.4296C10.7082 15.5524 8.43084 13.2778 6.56059 10.6019C6.07659 9.91082 6.15352 9.2156 6.75083 8.6099C7.40969 7.94265 8.07694 7.28519 8.73719 6.61934C9.12747 6.22626 9.18202 5.77304 8.79594 5.37576C7.60972 4.15177 6.40532 2.94737 5.18272 1.76255C4.76307 1.35548 4.33362 1.41423 3.90838 1.83389C3.49711 2.23955 3.11103 2.67459 2.67739 3.05508C1.79892 3.82584 1.46459 4.80364 1.48837 5.9395Z" fill="white"/>
</svg>
