<svg width="24" height="24" viewBox="0 0 24 24" fill="none" xmlns="http://www.w3.org/2000/svg">
<path d="M20.7891 19.6968L15.7828 14.6437C16.7625 13.4156 17.3531 11.8593 17.3531 10.1671C17.3531 6.20621 14.1422 2.99527 10.1766 2.99527C6.21094 2.99527 3 6.2109 3 10.1718C3 14.1328 6.21094 17.3437 10.1766 17.3437C11.8922 17.3437 13.4625 16.7437 14.7 15.7406L19.6734 20.7609C19.8234 20.9203 20.0297 21 20.2313 21C20.4234 21 20.6156 20.9296 20.7609 20.789C21.0703 20.4937 21.0797 20.0062 20.7891 19.6968ZM10.1766 15.8015C8.67188 15.8015 7.25625 15.2156 6.19219 14.1515C5.12813 13.0875 4.54219 11.6718 4.54219 10.1718C4.54219 8.66715 5.12813 7.25152 6.19219 6.19214C7.25625 5.12808 8.67188 4.54214 10.1766 4.54214C11.6813 4.54214 13.0969 5.12808 14.1609 6.19214C15.225 7.25621 15.8109 8.67183 15.8109 10.1718C15.8109 11.6765 15.225 13.0921 14.1609 14.1515C13.0969 15.2156 11.6813 15.8015 10.1766 15.8015Z" fill="#696969"/>
</svg>
