<svg width="37" height="37" viewBox="0 0 37 37" fill="none" xmlns="http://www.w3.org/2000/svg">
<g clip-path="url(#clip0)">
<path d="M36.999 18.5113C36.967 20.7128 36.9447 22.9156 36.8988 25.1171C36.8682 26.5666 36.7764 28.0133 36.3924 29.4225C35.6049 32.316 33.9049 34.4659 31.1905 35.7748C30.0929 36.304 28.9228 36.6061 27.7152 36.7509C25.7633 36.9862 23.8003 36.9876 21.8386 36.9946C18.9115 37.0043 15.9829 37.0016 13.0557 36.9626C11.7869 36.9459 10.5126 36.886 9.2521 36.7384C6.99829 36.4752 4.96569 35.6718 3.28786 34.076C1.71854 32.5847 0.830929 30.7411 0.407992 28.6455C0.175655 27.4954 0.115832 26.3299 0.081051 25.1616C-0.0372043 21.0456 -0.0135533 16.9281 0.0532262 12.812C0.0727035 11.6271 0.133918 10.4379 0.273042 9.26131C0.535986 7.03898 1.31647 5.02689 2.87048 3.35875C4.37024 1.75048 6.2345 0.841211 8.36031 0.409553C9.50948 0.177015 10.6739 0.11714 11.8412 0.0837216C15.9787 -0.0360285 20.1163 -0.0109645 24.2538 0.0572652C25.4127 0.0767594 26.5772 0.136634 27.7278 0.274486C30.6939 0.630952 33.1731 1.88972 34.9358 4.37802C35.8275 5.63818 36.3284 7.05847 36.6094 8.56509C36.8807 10.0202 36.9085 11.4962 36.9322 12.9694C36.9614 14.8158 36.9391 16.6635 36.9391 18.5113C36.9586 18.5113 36.9795 18.5113 36.999 18.5113ZM18.4774 33.6319C18.4774 33.6541 18.4774 33.6778 18.4774 33.7001C20.7256 33.6653 22.9753 33.636 25.2235 33.5929C26.2628 33.572 27.2992 33.5024 28.3162 33.2629C29.7228 32.9301 30.9346 32.2687 31.875 31.1491C32.6973 30.1702 33.1258 29.0215 33.347 27.7808C33.5403 26.6919 33.5737 25.5905 33.5918 24.4905C33.6614 20.2087 33.692 15.9269 33.5612 11.6452C33.5306 10.6551 33.461 9.66791 33.2384 8.69598C32.8892 7.17265 32.1547 5.89021 30.9039 4.92664C29.976 4.21092 28.902 3.84889 27.7667 3.64002C26.6676 3.43951 25.5532 3.41027 24.443 3.39217C20.1775 3.32394 15.912 3.2933 11.6464 3.4228C10.6503 3.45343 9.65834 3.52166 8.68169 3.74863C7.15272 4.1037 5.87 4.84309 4.90726 6.10465C4.20051 7.03201 3.84296 8.10141 3.63567 9.23207C3.43811 10.314 3.40889 11.4099 3.39081 12.5029C3.31985 16.7972 3.29064 21.0915 3.42142 25.3844C3.45202 26.3744 3.52158 27.3617 3.74697 28.3322C4.10591 29.875 4.85717 31.1672 6.13572 32.128C7.05672 32.8201 8.11406 33.1737 9.23262 33.3742C10.3985 33.5831 11.5796 33.6096 12.758 33.6235C14.664 33.65 16.5714 33.6319 18.4774 33.6319Z" fill="white"/>
<path d="M24.5888 18.5L14.1545 12.4707V24.5293L24.5888 18.5Z" fill="white"/>
</g>
<defs>
<clipPath id="clip0">
<rect width="37" height="37" fill="white"/>
</clipPath>
</defs>
</svg>
